<?xml version="1.0" standalone="no"?>
<!DOCTYPE svg PUBLIC "-//W3C//DTD SVG 20010904//EN"
 "http://www.w3.org/TR/2001/REC-SVG-20010904/DTD/svg10.dtd">
<svg version="1.0" xmlns="http://www.w3.org/2000/svg"
 width="1052.000000pt" height="1052.000000pt" viewBox="0 0 1052.000000 1052.000000"
 preserveAspectRatio="xMidYMid meet">
<metadata>
Created by potrace 1.11, written by Peter Selinger 2001-2013
</metadata>
<g transform="translate(0.000000,1052.000000) scale(0.100000,-0.100000)"
fill="#000000" stroke="none">
<path d="M5338 10295 c-2 -1 -39 -5 -83 -9 -103 -8 -124 -12 -160 -26 -16 -6
-31 -11 -33 -11 -7 3 -59 -13 -69 -22 -7 -5 -13 -7 -13 -4 0 10 -125 -55 -194
-101 -38 -25 -97 -73 -131 -106 -65 -64 -145 -166 -145 -184 0 -5 -3 -12 -8
-14 -12 -5 -73 -143 -88 -201 -24 -87 -29 -127 -29 -242 0 -119 3 -147 30
-245 10 -36 19 -72 20 -80 1 -8 5 -22 8 -30 3 -8 8 -28 11 -45 9 -54 16 -89
26 -130 10 -40 36 -163 47 -220 6 -35 8 -41 16 -75 4 -14 9 -36 11 -50 3 -14
7 -36 10 -50 3 -14 8 -38 12 -55 3 -16 7 -37 10 -45 4 -15 -36 -28 -146 -46
-94 -16 -304 -66 -340 -81 -18 -7 -28 -10 -57 -17 -12 -2 -31 -10 -42 -16 -12
-6 -21 -8 -21 -5 0 3 -13 -1 -29 -10 -17 -8 -38 -17 -48 -18 -86 -17 -382
-180 -466 -256 -59 -54 -118 -111 -113 -111 3 0 -11 -23 -30 -51 -43 -65 -66
-143 -64 -222 1 -34 1 -422 1 -862 -2 -4372 2 -5740 19 -5740 1 0 3 -10 6 -23
4 -24 58 -134 77 -160 7 -8 48 -52 92 -96 128 -130 306 -238 563 -340 34 -13
62 -22 62 -19 0 3 7 0 15 -7 8 -7 15 -9 15 -5 0 4 6 2 13 -4 8 -6 24 -13 38
-15 13 -3 24 -5 24 -6 0 -1 7 -3 15 -5 8 -1 40 -10 71 -19 31 -9 66 -18 78
-21 11 -2 25 -6 30 -9 5 -3 25 -8 44 -10 20 -3 55 -10 79 -16 23 -7 56 -14 73
-15 16 -2 41 -6 55 -9 14 -2 41 -7 60 -10 19 -3 46 -8 60 -10 14 -3 54 -7 90
-11 36 -4 79 -8 95 -10 175 -23 740 -23 875 0 14 2 54 7 90 11 108 11 115 12
115 14 0 1 14 3 30 5 17 1 46 6 65 9 19 4 46 9 60 11 44 8 164 34 200 43 19 5
38 9 43 10 21 4 131 37 202 60 44 14 82 27 85 27 3 1 19 7 35 14 17 7 46 19
65 26 44 16 186 85 220 107 14 9 41 24 60 35 78 41 213 156 287 245 50 60 96
163 109 244 3 21 6 572 6 1224 1 652 4 1192 9 1201 5 9 6 19 3 22 -6 5 -8 159
-4 182 1 6 2 15 1 20 -2 13 -3 449 0 461 1 5 1 14 -1 19 -2 12 -2 248 1 255 1
3 0 10 -1 15 -2 13 -2 177 0 190 1 6 2 15 1 20 -2 13 -3 449 0 461 1 5 1 14
-1 19 -2 12 -2 248 1 255 1 3 0 10 -1 15 -2 12 -2 285 1 300 1 6 0 15 -1 20
-5 24 -1 175 5 185 3 5 2 10 -3 10 -6 0 -10 343 -10 893 1 703 -2 898 -12 922
-7 17 -14 36 -16 43 -11 56 -230 282 -272 282 -6 0 -12 4 -14 9 -7 20 -218
125 -363 181 -65 25 -107 40 -127 45 -30 6 -249 66 -268 73 -15 5 -27 7 -80
16 -14 3 -50 10 -80 16 -57 12 -83 17 -111 19 -14 1 -15 7 -8 39 5 20 12 48
15 62 6 32 34 159 39 185 3 11 8 36 12 55 8 41 6 31 21 100 7 30 14 64 16 75
3 11 14 63 26 115 12 52 23 105 26 117 2 12 9 34 14 48 5 14 7 25 4 25 -2 0 0
8 5 18 26 49 34 248 14 357 -46 252 -190 466 -408 607 -60 39 -178 98 -196 98
-5 0 -17 4 -27 10 -29 15 -149 41 -220 46 -37 3 -75 7 -84 8 -9 2 -18 3 -20 1z"/>
</g>
</svg>
