<?xml version="1.0" standalone="no"?>
<!DOCTYPE svg PUBLIC "-//W3C//DTD SVG 20010904//EN"
 "http://www.w3.org/TR/2001/REC-SVG-20010904/DTD/svg10.dtd">
<svg version="1.0" xmlns="http://www.w3.org/2000/svg"
 width="1052.000000pt" height="1052.000000pt" viewBox="0 0 1052.000000 1052.000000"
 preserveAspectRatio="xMidYMid meet">
<metadata>
Created by potrace 1.11, written by Peter Selinger 2001-2013
</metadata>
<g transform="translate(0.000000,1052.000000) scale(0.100000,-0.100000)"
fill="#000000" stroke="none">
<path d="M7062 9924 c-162 -79 -291 -148 -288 -153 8 -13 427 -625 430 -629 2
-1 13 60 25 135 12 76 42 262 66 413 25 151 49 298 54 325 5 28 8 51 8 51 -1
1 -134 -63 -295 -142z"/>
<path d="M6503 9457 l-193 -261 0 -474 c0 -275 4 -472 9 -470 25 9 852 771
848 781 -6 16 -445 658 -460 674 -9 9 -58 -50 -204 -250z"/>
<path d="M7341 9413 c-12 -76 -31 -195 -42 -265 l-21 -127 38 -166 c21 -91 41
-165 46 -165 4 0 8 194 8 430 0 237 -1 430 -3 430 -2 0 -13 -62 -26 -137z"/>
<path d="M5934 8566 c-688 -1153 -2345 -3931 -2840 -4761 -298 -500 -542 -911
-540 -912 1 -1 153 62 338 140 263 112 341 149 360 172 14 17 236 383 495 815
259 432 921 1537 1472 2457 l1001 1672 -2 444 -3 444 -281 -471z"/>
<path d="M6807 8573 c-216 -197 -388 -359 -381 -361 6 -2 133 13 280 32 148
19 349 45 446 57 98 13 182 26 188 29 6 4 -1 50 -19 126 -16 65 -48 199 -71
297 -23 97 -44 177 -45 177 -2 0 -181 -161 -398 -357z"/>
<path d="M7309 8236 c-2 -2 -45 -9 -94 -15 -96 -11 -187 -23 -550 -71 -126
-17 -258 -33 -292 -37 -35 -3 -67 -11 -72 -17 -4 -6 -108 -261 -229 -566 -121
-305 -377 -946 -567 -1425 -191 -478 -416 -1043 -500 -1255 -84 -212 -304
-764 -488 -1227 -185 -462 -339 -856 -342 -875 -4 -21 1 -62 14 -108 11 -41
41 -156 67 -255 26 -99 71 -272 101 -385 29 -113 63 -242 75 -288 11 -46 24
-80 28 -75 4 4 96 213 205 463 318 733 1373 3157 2130 4895 290 666 529 1218
532 1228 5 15 -7 24 -18 13z"/>
<path d="M4676 5399 c-735 -1228 -1335 -2233 -1334 -2234 2 -2 172 -84 378
-184 l374 -181 177 443 c97 243 311 782 477 1197 165 415 457 1147 647 1625
191 479 408 1023 482 1209 74 187 136 343 139 348 3 4 3 8 1 8 -3 0 -606
-1004 -1341 -2231z"/>
<path d="M3271 2958 c-17 -68 -60 -233 -95 -368 -380 -1460 -497 -1912 -494
-1915 5 -4 1372 2045 1367 2049 -8 7 -732 356 -739 356 -4 0 -22 -55 -39 -122z"/>
<path d="M2840 2916 l-355 -151 3 -75 c1 -41 7 -151 12 -245 5 -93 17 -298 25
-455 8 -157 26 -489 40 -739 14 -250 25 -472 25 -494 0 -22 3 -38 6 -35 3 3
23 73 44 154 21 82 62 239 90 349 29 110 72 274 95 365 52 198 104 396 195
745 37 143 93 359 124 480 32 121 59 228 62 238 3 9 2 17 -3 16 -4 -1 -168
-69 -363 -153z"/>
<path d="M3411 1604 c-377 -563 -689 -1030 -694 -1039 -6 -11 9 -6 45 14 29
17 407 232 840 478 433 247 788 453 788 459 0 7 -29 121 -64 255 -35 134 -98
379 -141 544 -43 165 -81 303 -84 307 -3 3 -314 -454 -690 -1018z"/>
</g>
</svg>
