<?xml version="1.0" standalone="no"?>
<!DOCTYPE svg PUBLIC "-//W3C//DTD SVG 20010904//EN"
 "http://www.w3.org/TR/2001/REC-SVG-20010904/DTD/svg10.dtd">
<svg version="1.0" xmlns="http://www.w3.org/2000/svg"
 width="1052.000000pt" height="1052.000000pt" viewBox="0 0 1052.000000 1052.000000"
 preserveAspectRatio="xMidYMid meet">
<metadata>
Created by potrace 1.11, written by Peter Selinger 2001-2013
</metadata>
<g transform="translate(0.000000,1052.000000) scale(0.100000,-0.100000)"
fill="#000000" stroke="none">
<path d="M4820 9465 l-655 -655 0 -748 0 -747 -844 -3 -844 -2 -375 -375 -375
-375 375 -375 375 -375 667 0 c424 0 666 -4 666 -10 0 -5 -11 -33 -24 -62 -58
-129 -69 -153 -69 -158 0 -3 -13 -30 -27 -60 -15 -30 -37 -80 -50 -111 -24
-59 -17 -55 -165 -119 -11 -5 -51 -23 -90 -40 -38 -18 -95 -42 -125 -55 -30
-13 -68 -30 -85 -39 -16 -9 -34 -16 -38 -16 -5 0 -32 -11 -60 -24 -29 -13 -78
-36 -109 -50 -32 -14 -58 -27 -58 -29 0 -1 12 -4 28 -5 15 -1 41 -6 57 -12 17
-5 44 -11 60 -14 17 -3 50 -10 75 -15 58 -13 65 -15 190 -41 58 -12 114 -24
125 -27 59 -14 203 -44 225 -47 14 -2 25 -5 25 -6 0 -2 15 -5 60 -14 17 -3 39
-8 50 -10 95 -21 86 -26 129 74 16 36 41 93 57 128 16 35 29 65 29 67 0 2 16
38 36 82 20 43 44 96 54 118 9 22 26 60 37 85 11 25 24 55 28 68 13 43 18 24
30 -103 3 -33 8 -82 10 -110 3 -27 8 -77 10 -110 3 -33 8 -85 10 -115 3 -30 7
-75 9 -100 2 -25 7 -70 10 -100 3 -30 8 -84 11 -120 3 -36 7 -83 9 -105 3 -22
7 -74 11 -115 9 -110 14 -168 21 -235 10 -100 12 -117 29 -340 2 -27 5 -50 5
-50 1 0 3 -18 5 -40 2 -22 6 -69 10 -105 8 -81 13 -136 20 -220 3 -36 8 -87
10 -115 4 -45 11 -121 19 -215 5 -54 17 -181 20 -215 2 -16 6 -66 10 -110 4
-44 9 -98 11 -120 3 -22 7 -67 10 -100 3 -33 8 -82 10 -110 3 -27 7 -77 10
-110 3 -33 7 -85 10 -115 3 -30 7 -84 10 -120 2 -36 5 -65 5 -65 1 0 3 -18 5
-40 2 -22 6 -69 10 -105 4 -36 8 -86 9 -112 0 -27 3 -48 6 -48 3 0 6 -25 7
-55 1 -49 6 -62 40 -103 45 -56 74 -91 88 -106 6 -6 55 -65 110 -131 54 -66
105 -126 112 -133 7 -8 26 -30 41 -50 15 -21 29 -39 32 -42 3 -3 28 -32 55
-65 28 -33 53 -62 56 -65 3 -3 40 -48 83 -100 42 -52 93 -113 112 -135 59 -70
75 -89 122 -147 26 -32 50 -58 55 -58 4 0 7 -6 7 -14 0 -8 7 -16 15 -20 17 -6
33 14 131 164 38 58 72 107 77 108 4 2 7 8 7 12 0 8 53 91 73 115 5 6 35 51
67 100 66 100 194 292 210 315 64 92 200 304 201 313 2 40 8 122 14 182 4 39
8 84 10 100 6 80 17 214 21 245 5 47 13 131 19 210 3 36 8 90 11 120 6 55 7
71 19 210 3 41 8 91 11 110 2 19 7 62 9 95 6 72 14 167 30 340 3 33 8 87 10
120 3 33 7 76 10 95 3 19 7 64 10 100 2 36 7 90 9 120 12 131 18 198 22 235 2
22 6 67 9 100 3 33 7 85 10 115 3 30 8 80 10 110 6 59 11 117 20 208 3 31 7
82 10 112 2 30 7 84 11 120 4 36 8 83 10 105 5 72 14 169 20 225 3 30 8 78 10
105 2 28 6 73 8 100 3 28 8 77 11 110 7 95 14 175 21 239 5 49 9 105 14 169 0
4 338 7 751 7 l751 0 375 375 375 376 -375 374 -375 375 -481 0 -481 0 -1 33
c0 17 -2 91 -4 162 -10 349 -16 547 -18 622 -1 45 -4 84 -7 87 -5 5 -94 -116
-115 -155 -5 -10 -13 -19 -17 -19 -5 0 -8 -5 -8 -11 0 -6 -6 -17 -12 -24 -21
-23 -31 -37 -62 -85 -17 -25 -35 -49 -41 -55 -6 -5 -27 -35 -48 -65 -20 -30
-49 -73 -65 -95 -15 -22 -46 -65 -67 -95 -79 -114 -72 -128 -71 136 1 129 -2
234 -6 234 -4 0 -4 10 0 23 4 12 6 99 5 192 -2 94 -3 181 -2 195 0 14 2 108 3
210 1 185 -3 217 -36 252 -7 7 -40 44 -73 83 -33 38 -72 83 -86 100 -15 16
-59 68 -99 115 -40 47 -91 107 -114 134 -22 26 -50 58 -61 70 -11 12 -42 48
-69 81 -28 33 -57 67 -65 76 -9 9 -25 27 -35 40 -27 33 -250 293 -256 299 -3
3 -56 65 -119 138 -62 72 -113 132 -114 132 -1 0 -297 -295 -657 -655z"/>
</g>
</svg>
