<?xml version="1.0" encoding="UTF-8" standalone="no"?>
<!-- Created with Inkscape (http://www.inkscape.org/) -->

<svg
   xmlns:dc="http://purl.org/dc/elements/1.1/"
   xmlns:cc="http://creativecommons.org/ns#"
   xmlns:rdf="http://www.w3.org/1999/02/22-rdf-syntax-ns#"
   xmlns:svg="http://www.w3.org/2000/svg"
   xmlns="http://www.w3.org/2000/svg"
   xmlns:sodipodi="http://sodipodi.sourceforge.net/DTD/sodipodi-0.dtd"
   xmlns:inkscape="http://www.inkscape.org/namespaces/inkscape"
   width="210mm"
   height="297mm"
   viewBox="0 0 744.09448819 1052.3622047"
   id="svg6140"
   version="1.1"
   inkscape:version="0.91 r13725"
   sodipodi:docname="heart box.svg"
   inkscape:export-filename="C:\Users\Margaux\OneDrive\Projects\Boundaries cartoon\heart box.png"
   inkscape:export-xdpi="90"
   inkscape:export-ydpi="90">
  <defs
     id="defs6142" />
  <sodipodi:namedview
     id="base"
     pagecolor="#ffffff"
     bordercolor="#666666"
     borderopacity="1.0"
     inkscape:pageopacity="0.0"
     inkscape:pageshadow="2"
     inkscape:zoom="0.7"
     inkscape:cx="0.22901857"
     inkscape:cy="563.68061"
     inkscape:document-units="px"
     inkscape:current-layer="layer1"
     showgrid="true"
     showguides="false"
     inkscape:window-width="1366"
     inkscape:window-height="705"
     inkscape:window-x="-8"
     inkscape:window-y="-8"
     inkscape:window-maximized="1">
    <inkscape:grid
       type="xygrid"
       id="grid6688" />
  </sodipodi:namedview>
  <metadata
     id="metadata6145">
    <rdf:RDF>
      <cc:Work
         rdf:about="">
        <dc:format>image/svg+xml</dc:format>
        <dc:type
           rdf:resource="http://purl.org/dc/dcmitype/StillImage" />
        <dc:title></dc:title>
      </cc:Work>
    </rdf:RDF>
  </metadata>
  <g
     inkscape:label="Layer 1"
     inkscape:groupmode="layer"
     id="layer1">
    <path
       style="opacity:1;fill:#280b0b;fill-opacity:1;stroke:#000000;stroke-width:1.30709517;stroke-linecap:square;stroke-linejoin:miter;stroke-miterlimit:4;stroke-dasharray:none;stroke-opacity:1"
       d="m 297.14425,196.08649 c -49.62153,-3.6e-4 -89.84784,40.86519 -89.84765,91.27539 0.0272,28.45012 -4.43945,59.28603 29.67047,103.93443 l 138.0014,195.35073 147.25894,-193.03125 c 26.11788,-16.84819 43.29398,-75.51091 43.3231,-106.25391 -6.3e-4,-50.40349 -41.50058,-91.26336 -92.69336,-91.26367 -41.55629,0.0416 -78.00599,27.30905 -89.1836,66.7168 -10.84124,-39.44462 -46.21668,-66.72498 -86.5293,-66.72852 z"
       id="path6748-8-1"
       inkscape:connector-curvature="0"
       sodipodi:nodetypes="ccccccccc" />
    <path
       style="opacity:1;fill:#782121;fill-opacity:1;stroke:#000000;stroke-width:1.30709517;stroke-linecap:square;stroke-linejoin:miter;stroke-miterlimit:4;stroke-dasharray:none;stroke-opacity:1"
       d="m 297.1451,197.51423 c -47.24439,-3.5e-4 -85.97031,37.04539 -89.57227,84.10156 8.43901,-2.66603 17.41231,-4.10163 26.71484,-4.10156 40.31262,0.004 75.68806,27.28389 86.5293,66.72851 11.17761,-39.40775 47.6273,-66.6752 89.18359,-66.7168 51.19278,3.1e-4 92.69273,40.86019 92.69336,91.26368 -0.02,21.11578 -8.13204,55.40284 -21.67187,80.26562 l 41.20508,-54.01172 c 26.11788,-16.84819 43.29509,-75.5109 43.32421,-106.2539 -6.3e-4,-50.40349 -41.50057,-91.26337 -92.69335,-91.26368 -41.55629,0.0416 -78.00599,27.30905 -89.1836,66.7168 -10.84124,-39.44462 -46.21668,-66.72497 -86.52929,-66.72851 z m 166.47265,274.35742 c -1.38805,1.17545 -2.80393,2.2403 -4.24805,3.17187 l -85.27929,111.78716 0.8789,1.2441 88.64844,-116.20313 z"
       id="path6748-87"
       inkscape:connector-curvature="0" />
    <path
       style="opacity:1;fill:#a02c2c;fill-opacity:1;stroke:#000000;stroke-width:1.30709517;stroke-linecap:square;stroke-linejoin:miter;stroke-miterlimit:4;stroke-dasharray:none;stroke-opacity:1"
       d="m 212.56612,282.40067 c -37.67407,10.86014 -65.26967,46.06519 -65.26952,87.81836 0.0272,28.45012 -4.44,59.2852 29.66992,103.9336 L 314.96847,669.50417 375.59348,590.03739 241.25362,399.86747 c -34.10993,-44.6484 -29.64467,-75.48347 -29.67187,-103.93359 -2e-5,-4.59884 0.33822,-9.11703 0.98437,-13.53321 z"
       id="path6748"
       inkscape:connector-curvature="0" />
    <path
       style="opacity:1;fill:#ffffff;fill-opacity:0;stroke:#000000;stroke-width:1.30709517;stroke-linecap:square;stroke-linejoin:miter;stroke-miterlimit:4;stroke-dasharray:none;stroke-opacity:1"
       d="m 237.14425,277.51506 c -49.62153,-3.6e-4 -89.84784,40.86519 -89.84765,91.27539 0.0272,28.45012 -4.43945,59.28603 29.67047,103.93443 l 138.0014,195.35069 147.25894,-193.03121 c 26.11788,-16.84819 43.29398,-75.51091 43.3231,-106.25391 -6.3e-4,-50.40349 -41.50058,-91.26336 -92.69336,-91.26367 -41.55629,0.0416 -78.00599,27.30905 -89.1836,66.7168 -10.84124,-39.44462 -46.21668,-66.72498 -86.5293,-66.72852 z"
       id="path6748-8"
       inkscape:connector-curvature="0"
       sodipodi:nodetypes="ccccccccc" />
    <path
       style="fill:#a02c2c;fill-opacity:1;fill-rule:evenodd;stroke:#000000;stroke-width:1.00999212px;stroke-linecap:butt;stroke-linejoin:miter;stroke-opacity:1"
       d="M 147.15169,338.07011 232.84832,223.79713 Z"
       id="path6834"
       inkscape:connector-curvature="0" />
    <path
       style="fill:#a02c2c;fill-opacity:1;fill-rule:evenodd;stroke:#000000;stroke-width:2.43287039px;stroke-linecap:butt;stroke-linejoin:miter;stroke-opacity:1"
       d="m 386.57129,258.50497 c -144.2146,197.0017 0,0 0,0 z"
       id="path6851"
       inkscape:connector-curvature="0" />
    <path
       style="fill:#a02c2c;fill-opacity:1;fill-rule:evenodd;stroke:none;stroke-width:1px;stroke-linecap:butt;stroke-linejoin:miter;stroke-opacity:1"
       d="m 148.57143,336.64791 62.85714,-52.85714 57.14286,-87.14286 -60,60 z"
       id="path6900"
       inkscape:connector-curvature="0"
       sodipodi:nodetypes="ccccc" />
  </g>
  <g
     inkscape:groupmode="layer"
     id="layer3"
     inkscape:label="Layer 2" />
</svg>
