<?xml version="1.0" encoding="UTF-8" standalone="no"?>
<!-- Created with Inkscape (http://www.inkscape.org/) -->

<svg
   xmlns:dc="http://purl.org/dc/elements/1.1/"
   xmlns:cc="http://creativecommons.org/ns#"
   xmlns:rdf="http://www.w3.org/1999/02/22-rdf-syntax-ns#"
   xmlns:svg="http://www.w3.org/2000/svg"
   xmlns="http://www.w3.org/2000/svg"
   xmlns:sodipodi="http://sodipodi.sourceforge.net/DTD/sodipodi-0.dtd"
   xmlns:inkscape="http://www.inkscape.org/namespaces/inkscape"
   width="210mm"
   height="297mm"
   viewBox="0 0 744.09448819 1052.3622047"
   id="svg2"
   version="1.1"
   inkscape:version="0.91 r13725"
   sodipodi:docname="pill.svg">
  <defs
     id="defs4" />
  <sodipodi:namedview
     id="base"
     pagecolor="#ffffff"
     bordercolor="#666666"
     borderopacity="1.0"
     inkscape:pageopacity="0.0"
     inkscape:pageshadow="2"
     inkscape:zoom="1.4"
     inkscape:cx="229.83986"
     inkscape:cy="782.31538"
     inkscape:document-units="px"
     inkscape:current-layer="layer1"
     showgrid="true"
     inkscape:window-width="1366"
     inkscape:window-height="705"
     inkscape:window-x="-8"
     inkscape:window-y="-8"
     inkscape:window-maximized="1">
    <inkscape:grid
       type="xygrid"
       id="grid4172" />
  </sodipodi:namedview>
  <metadata
     id="metadata7">
    <rdf:RDF>
      <cc:Work
         rdf:about="">
        <dc:format>image/svg+xml</dc:format>
        <dc:type
           rdf:resource="http://purl.org/dc/dcmitype/StillImage" />
        <dc:title></dc:title>
      </cc:Work>
    </rdf:RDF>
  </metadata>
  <g
     inkscape:label="Layer 1"
     inkscape:groupmode="layer"
     id="layer1">
    <g
       id="g4232">
      <g
         id="g4228">
        <path
           style="opacity:1;fill:#71c837;fill-opacity:1;stroke:none;stroke-width:2;stroke-linecap:square;stroke-linejoin:miter;stroke-miterlimit:4;stroke-dasharray:none;stroke-opacity:1"
           d="M 99.949219 236.29688 L 99.949219 328.24609 L 99.949219 336.30469 L 101.2168 336.30469 A 200 78.791901 0 0 0 299.94922 407.03711 A 200 78.791901 0 0 0 498.87695 336.30469 L 499.34961 336.30469 L 499.34961 332.9707 A 200 78.791901 0 0 0 499.94922 328.24609 A 200 78.791901 0 0 0 499.34961 322.34961 L 499.34961 236.29688 L 99.949219 236.29688 z "
           id="path4136-3" />
        <path
           style="opacity:1;fill:#8dd35f;fill-opacity:1;stroke:none;stroke-width:2;stroke-linecap:square;stroke-linejoin:miter;stroke-miterlimit:4;stroke-dasharray:none;stroke-opacity:1"
           d="m 499.94992,244.24015 a 200,78.791901 0 0 1 -200,78.7919 200,78.791901 0 0 1 -200.000002,-78.7919 200,78.791901 0 0 1 200.000002,-78.7919 200,78.791901 0 0 1 200,78.7919 z"
           id="path4136"
           inkscape:connector-curvature="0" />
      </g>
      <path
         sodipodi:nodetypes="ccccc"
         inkscape:connector-curvature="0"
         id="path4197"
         d="m 181.00399,298.85205 232.81344,-114.1938 c -6.25338,-2.39218 -11.99541,-5.02949 -20.53572,-6.96429 l -230.84914,112.4081 c 3.21428,4.46428 13.57142,7.32142 18.57142,8.74999 z"
         style="fill:#447821;fill-opacity:1;fill-rule:evenodd;stroke:none;stroke-width:1px;stroke-linecap:butt;stroke-linejoin:miter;stroke-opacity:1" />
    </g>
  </g>
</svg>
